<mxfile host="app.diagrams.net" agent="Mozilla/5.0 (X11; Linux x86_64) AppleWebKit/537.36 (KHTML, like Gecko) Chrome/104.0.0.0 Safari/537.36" version="24.7.7">
  <diagram name="Page-1" id="VS5BhLp_9e2lpXWjOZBU">
    <mxGraphModel dx="592" dy="314" grid="0" gridSize="10" guides="1" tooltips="1" connect="1" arrows="1" fold="1" page="1" pageScale="1" pageWidth="5000" pageHeight="5000" math="0" shadow="0">
      <root>
        <mxCell id="0" />
        <mxCell id="1" parent="0" />
        <mxCell id="zrfWtgXS1CAK7YGsXYCx-3" value="" style="shape=cube;whiteSpace=wrap;html=1;boundedLbl=1;backgroundOutline=1;darkOpacity=0.05;darkOpacity2=0.1;direction=south;fillColor=#fff2cc;strokeColor=#d6b656;size=10;" vertex="1" parent="1">
          <mxGeometry x="220" y="618" width="50" height="52" as="geometry" />
        </mxCell>
        <mxCell id="zrfWtgXS1CAK7YGsXYCx-4" value="Input tensor" style="text;html=1;align=center;verticalAlign=middle;whiteSpace=wrap;rounded=0;" vertex="1" parent="1">
          <mxGeometry x="180" y="580" width="130" height="30" as="geometry" />
        </mxCell>
        <mxCell id="zrfWtgXS1CAK7YGsXYCx-5" value="" style="endArrow=classic;html=1;rounded=0;" edge="1" parent="1">
          <mxGeometry width="50" height="50" relative="1" as="geometry">
            <mxPoint x="280" y="640.66" as="sourcePoint" />
            <mxPoint x="320" y="641" as="targetPoint" />
          </mxGeometry>
        </mxCell>
        <mxCell id="GIMvln2N8I7Lh5NDb-fV-1" value="" style="shape=cube;whiteSpace=wrap;html=1;boundedLbl=1;backgroundOutline=1;darkOpacity=0.05;darkOpacity2=0.1;direction=south;fillColor=#f8cecc;strokeColor=#b85450;size=10;" vertex="1" parent="1">
          <mxGeometry x="330" y="626" width="80" height="30" as="geometry" />
        </mxCell>
        <mxCell id="GIMvln2N8I7Lh5NDb-fV-2" value="Channel attention map" style="text;html=1;align=center;verticalAlign=middle;whiteSpace=wrap;rounded=0;" vertex="1" parent="1">
          <mxGeometry x="310" y="588" width="130" height="30" as="geometry" />
        </mxCell>
        <mxCell id="GIMvln2N8I7Lh5NDb-fV-3" value="" style="endArrow=classic;html=1;rounded=0;" edge="1" parent="1">
          <mxGeometry width="50" height="50" relative="1" as="geometry">
            <mxPoint x="416" y="640.7099999999999" as="sourcePoint" />
            <mxPoint x="456" y="641.05" as="targetPoint" />
          </mxGeometry>
        </mxCell>
        <mxCell id="GIMvln2N8I7Lh5NDb-fV-4" value="" style="endArrow=none;html=1;rounded=0;" edge="1" parent="1">
          <mxGeometry width="50" height="50" relative="1" as="geometry">
            <mxPoint x="240" y="720" as="sourcePoint" />
            <mxPoint x="240" y="680" as="targetPoint" />
          </mxGeometry>
        </mxCell>
        <mxCell id="GIMvln2N8I7Lh5NDb-fV-5" value="" style="endArrow=none;html=1;rounded=0;" edge="1" parent="1">
          <mxGeometry width="50" height="50" relative="1" as="geometry">
            <mxPoint x="240" y="720" as="sourcePoint" />
            <mxPoint x="472" y="720" as="targetPoint" />
          </mxGeometry>
        </mxCell>
        <mxCell id="GIMvln2N8I7Lh5NDb-fV-6" value="" style="endArrow=classic;html=1;rounded=0;" edge="1" parent="1">
          <mxGeometry width="50" height="50" relative="1" as="geometry">
            <mxPoint x="472" y="720" as="sourcePoint" />
            <mxPoint x="472" y="667" as="targetPoint" />
          </mxGeometry>
        </mxCell>
        <mxCell id="GIMvln2N8I7Lh5NDb-fV-7" value="" style="ellipse;whiteSpace=wrap;html=1;aspect=fixed;" vertex="1" parent="1">
          <mxGeometry x="461" y="626" width="34" height="34" as="geometry" />
        </mxCell>
        <mxCell id="GIMvln2N8I7Lh5NDb-fV-8" value="" style="endArrow=none;html=1;rounded=0;entryX=1;entryY=0;entryDx=0;entryDy=0;exitX=0;exitY=1;exitDx=0;exitDy=0;" edge="1" parent="1" source="GIMvln2N8I7Lh5NDb-fV-7" target="GIMvln2N8I7Lh5NDb-fV-7">
          <mxGeometry width="50" height="50" relative="1" as="geometry">
            <mxPoint x="467" y="654" as="sourcePoint" />
            <mxPoint x="489" y="632.5" as="targetPoint" />
          </mxGeometry>
        </mxCell>
        <mxCell id="GIMvln2N8I7Lh5NDb-fV-9" value="" style="endArrow=none;html=1;rounded=0;entryX=0;entryY=0;entryDx=0;entryDy=0;exitX=1;exitY=1;exitDx=0;exitDy=0;" edge="1" parent="1" source="GIMvln2N8I7Lh5NDb-fV-7" target="GIMvln2N8I7Lh5NDb-fV-7">
          <mxGeometry width="50" height="50" relative="1" as="geometry">
            <mxPoint x="460" y="675" as="sourcePoint" />
            <mxPoint x="487" y="649" as="targetPoint" />
          </mxGeometry>
        </mxCell>
        <mxCell id="GIMvln2N8I7Lh5NDb-fV-10" value="" style="endArrow=classic;html=1;rounded=0;" edge="1" parent="1">
          <mxGeometry width="50" height="50" relative="1" as="geometry">
            <mxPoint x="502" y="640.7099999999999" as="sourcePoint" />
            <mxPoint x="542" y="641.05" as="targetPoint" />
          </mxGeometry>
        </mxCell>
        <mxCell id="GIMvln2N8I7Lh5NDb-fV-11" value="" style="shape=cube;whiteSpace=wrap;html=1;boundedLbl=1;backgroundOutline=1;darkOpacity=0.05;darkOpacity2=0.1;direction=south;fillColor=#bac8d3;strokeColor=#23445d;" vertex="1" parent="1">
          <mxGeometry x="550" y="585" width="30" height="105" as="geometry" />
        </mxCell>
        <mxCell id="GIMvln2N8I7Lh5NDb-fV-12" value="Spatial attention map" style="text;html=1;align=center;verticalAlign=middle;whiteSpace=wrap;rounded=0;" vertex="1" parent="1">
          <mxGeometry x="503" y="555" width="130" height="30" as="geometry" />
        </mxCell>
        <mxCell id="GIMvln2N8I7Lh5NDb-fV-13" value="" style="endArrow=classic;html=1;rounded=0;" edge="1" parent="1">
          <mxGeometry width="50" height="50" relative="1" as="geometry">
            <mxPoint x="593" y="640.8" as="sourcePoint" />
            <mxPoint x="633" y="641.14" as="targetPoint" />
          </mxGeometry>
        </mxCell>
        <mxCell id="GIMvln2N8I7Lh5NDb-fV-14" value="" style="endArrow=none;html=1;rounded=0;" edge="1" parent="1">
          <mxGeometry width="50" height="50" relative="1" as="geometry">
            <mxPoint x="488" y="720" as="sourcePoint" />
            <mxPoint x="488" y="669" as="targetPoint" />
          </mxGeometry>
        </mxCell>
        <mxCell id="GIMvln2N8I7Lh5NDb-fV-15" value="" style="endArrow=none;html=1;rounded=0;" edge="1" parent="1">
          <mxGeometry width="50" height="50" relative="1" as="geometry">
            <mxPoint x="488" y="720" as="sourcePoint" />
            <mxPoint x="656" y="720" as="targetPoint" />
          </mxGeometry>
        </mxCell>
        <mxCell id="GIMvln2N8I7Lh5NDb-fV-16" value="" style="endArrow=classic;html=1;rounded=0;" edge="1" parent="1">
          <mxGeometry width="50" height="50" relative="1" as="geometry">
            <mxPoint x="656.86" y="720" as="sourcePoint" />
            <mxPoint x="657" y="666" as="targetPoint" />
          </mxGeometry>
        </mxCell>
        <mxCell id="GIMvln2N8I7Lh5NDb-fV-17" value="" style="ellipse;whiteSpace=wrap;html=1;aspect=fixed;" vertex="1" parent="1">
          <mxGeometry x="640" y="624" width="34" height="34" as="geometry" />
        </mxCell>
        <mxCell id="GIMvln2N8I7Lh5NDb-fV-18" value="" style="endArrow=none;html=1;rounded=0;entryX=1;entryY=0;entryDx=0;entryDy=0;exitX=0;exitY=1;exitDx=0;exitDy=0;" edge="1" parent="1" source="GIMvln2N8I7Lh5NDb-fV-17" target="GIMvln2N8I7Lh5NDb-fV-17">
          <mxGeometry width="50" height="50" relative="1" as="geometry">
            <mxPoint x="646" y="652" as="sourcePoint" />
            <mxPoint x="668" y="630.5" as="targetPoint" />
          </mxGeometry>
        </mxCell>
        <mxCell id="GIMvln2N8I7Lh5NDb-fV-19" value="" style="endArrow=none;html=1;rounded=0;entryX=0;entryY=0;entryDx=0;entryDy=0;exitX=1;exitY=1;exitDx=0;exitDy=0;" edge="1" parent="1" source="GIMvln2N8I7Lh5NDb-fV-17" target="GIMvln2N8I7Lh5NDb-fV-17">
          <mxGeometry width="50" height="50" relative="1" as="geometry">
            <mxPoint x="639" y="673" as="sourcePoint" />
            <mxPoint x="666" y="647" as="targetPoint" />
          </mxGeometry>
        </mxCell>
        <mxCell id="GIMvln2N8I7Lh5NDb-fV-20" value="" style="endArrow=classic;html=1;rounded=0;" edge="1" parent="1">
          <mxGeometry width="50" height="50" relative="1" as="geometry">
            <mxPoint x="680" y="640.8299999999999" as="sourcePoint" />
            <mxPoint x="720" y="641.17" as="targetPoint" />
          </mxGeometry>
        </mxCell>
        <mxCell id="GIMvln2N8I7Lh5NDb-fV-22" value="" style="shape=cube;whiteSpace=wrap;html=1;boundedLbl=1;backgroundOutline=1;darkOpacity=0.05;darkOpacity2=0.1;direction=south;fillColor=#fff2cc;strokeColor=#d6b656;size=10;" vertex="1" parent="1">
          <mxGeometry x="730" y="615" width="50" height="52" as="geometry" />
        </mxCell>
        <mxCell id="GIMvln2N8I7Lh5NDb-fV-23" value="Output tensor" style="text;html=1;align=center;verticalAlign=middle;whiteSpace=wrap;rounded=0;" vertex="1" parent="1">
          <mxGeometry x="690" y="585" width="130" height="30" as="geometry" />
        </mxCell>
      </root>
    </mxGraphModel>
  </diagram>
</mxfile>
